<mxfile host="app.diagrams.net" modified="2024-08-16T05:06:59.469Z" agent="Mozilla/5.0 (Windows NT 10.0; Win64; x64) AppleWebKit/537.36 (KHTML, like Gecko) Chrome/127.0.0.0 Safari/537.36 Edg/127.0.0.0" version="24.7.0" etag="J5VzT3K-9aAYBw8-mQ81" type="github">
  <diagram name="第 1 页" id="i-CrTpacaUZELs6UpFSs">
    <mxGraphModel>
      <root>
        <mxCell id="0" />
        <mxCell id="1" parent="0" />
      </root>
    </mxGraphModel>
  </diagram>
</mxfile>
